<?xml version="1.0" encoding="UTF-8"?>
<!DOCTYPE svg PUBLIC "-//W3C//DTD SVG 1.1//EN" "http://www.w3.org/Graphics/SVG/1.1/DTD/svg11.dtd">
<!-- Creator: CorelDRAW -->
<svg xmlns="http://www.w3.org/2000/svg" xml:space="preserve" width="6.82666in" height="6.82666in" style="shape-rendering:geometricPrecision; text-rendering:geometricPrecision; image-rendering:optimizeQuality; fill-rule:evenodd; clip-rule:evenodd"
viewBox="0 0 6.82666 6.82666"
 xmlns:xlink="http://www.w3.org/1999/xlink">
 <defs>
  <style type="text/css">
   <![CDATA[
    .fil1 {fill:none}
    .fil0 {fill:black;fill-rule:nonzero}
   ]]>
  </style>
 </defs>
 <g id="Layer_x0020_1">
  <metadata id="CorelCorpID_0Corel-Layer"/>
  <path class="fil0" d="M1.03546 2.49656c-0.0241575,0.0166811 -0.0302205,0.0497992 -0.0135394,0.0739567 0.0166811,0.0241575 0.0497992,0.0302205 0.0739567,0.0135394l2.31669 -1.61177 2.31843 1.59431c0.0242756,0.0165669 0.0573898,0.0103189 0.0739567,-0.0139567 0.0165669,-0.0242756 0.0103189,-0.0573898 -0.0139567,-0.0739567l-2.34548 -1.61283c-0.0179213,-0.0141772 -0.043689,-0.0156811 -0.0634488,-0.00199606l9.44882e-005 0.000137795 -2.3467 1.63256z"/>
  <path class="fil0" d="M5.00689 5.86319l0.546756 0.00335827 0 -3.23509 -2.14042 -1.47276 -2.14021 1.48985 0 3.21811 0.54676 0 0 -2.87309c0,-0.0294528 0.0238819,-0.0533346 0.0533346,-0.0533346l3.08044 0c0.0294528,0 0.0533346,0.0238819 0.0533346,0.0533346l0 2.86961zm0.599764 0.109937l-0.648732 -0.00398425c-0.00143701,0.00011811 -0.0028937,0.000181102 -0.00436614,0.000181102 -0.0294528,0 -0.0533346,-0.0238819 -0.0533346,-0.0533346l0 -2.86907 -2.97378 0 0 2.87309c0,0.0294528 -0.0238819,0.0533346 -0.0533346,0.0533346l-0.653429 0c-0.0294528,0 -0.0533346,-0.0238819 -0.0533346,-0.0533346l0 -3.29924c1.1811e-005,-0.0168465 0.00799213,-0.0334173 0.0228661,-0.0437717l0.0304685 0.0437717 -0.0304173 -0.043748 2.19115 -1.52531c0.0178465,-0.0137323 0.0432087,-0.0151102 0.0627598,-0.00165748l-2.3622e-005 0.000188976 2.19037 1.50713c0.0160079,0.00920472 0.0267913,0.0264764 0.0267913,0.0462677l0 3.31638 -3.93701e-006 0 0 0.000326772c-0.000177165,0.0294528 -0.0242047,0.0531811 -0.0536575,0.0530039l0 -0.000204724z"/>
  <path class="fil0" d="M3.41333 1.70806c0.128142,0 0.244157,0.0519449 0.328134,0.135925 0.0839803,0.0839764 0.135925,0.199992 0.135925,0.328134 0,0.128138 -0.0519488,0.244157 -0.135925,0.328134 -0.0839764,0.0839803 -0.199992,0.135925 -0.328134,0.135925 -0.128142,0 -0.244157,-0.0519449 -0.328134,-0.135925 -0.0839764,-0.0839764 -0.135925,-0.199996 -0.135925,-0.328134 0,-0.128142 0.0519449,-0.244157 0.135925,-0.328134 0.0839764,-0.0839803 0.199992,-0.135925 0.328134,-0.135925zm0.252717 0.211343c-0.0646654,-0.0646693 -0.15402,-0.104673 -0.252717,-0.104673 -0.0986969,0 -0.188051,0.0400039 -0.252717,0.104673 -0.0646693,0.0646654 -0.104673,0.15402 -0.104673,0.252717 0,0.0986929 0.0400039,0.188047 0.104673,0.252717 0.0646654,0.0646693 0.15402,0.104673 0.252717,0.104673 0.0986969,0 0.188051,-0.0400039 0.252717,-0.104673 0.0646693,-0.0646693 0.104673,-0.154024 0.104673,-0.252717 0,-0.0986969 -0.0400039,-0.188051 -0.104673,-0.252717z"/>
  <path class="fil0" d="M2.07847 4.83985l1.02682 0 0.0533346 0 0 0.0533346 0 1.02681 0 0.0533346 -0.0533346 0 -1.02682 0 -0.0533346 0 0 -0.0533346 0 -1.02681 0 -0.0533346 0.0533346 0zm0.973484 0.106669l-0.92015 0 0 0.920146 0.92015 0 0 -0.920146z"/>
  <path class="fil0" d="M3.31065 4.83985l1.02682 0 0.0533346 0 0 0.0533346 0 1.02681 0 0.0533346 -0.0533346 0 -1.02682 0 -0.0533346 0 0 -0.0533346 0 -1.02681 0 -0.0533346 0.0533346 0zm0.973484 0.106669l-0.92015 0 0 0.920146 0.92015 0 0 -0.920146z"/>
  <path class="fil0" d="M2.13181 4.83985l0.92015 0 0 -0.92015 -0.92015 0 0 0.92015zm0.973484 0.106669l-1.02682 0 -0.0533346 0 0 -0.0533346 0 -1.02682 0 -0.0533346 0.0533346 0 1.02682 0 0.0533346 0 0 0.0533346 0 1.02682 0 0.0533346 -0.0533346 0z"/>
 </g>
 <rect class="fil1" width="6.82666" height="6.82666"/>
</svg>
